<mxfile host="app.diagrams.net" agent="Mozilla/5.0 (X11; Linux x86_64; rv:132.0) Gecko/20100101 Firefox/132.0" version="24.8.3">
  <diagram name="Page-1" id="fXRifTzL9tEW-Ucica_f">
    <mxGraphModel dx="1430" dy="1853" grid="1" gridSize="10" guides="1" tooltips="1" connect="1" arrows="1" fold="1" page="1" pageScale="1" pageWidth="850" pageHeight="1100" math="0" shadow="0">
      <root>
        <mxCell id="0" />
        <mxCell id="1" parent="0" />
        <mxCell id="aUSmhHUlLb2KoyWTokQt-10" style="edgeStyle=orthogonalEdgeStyle;rounded=0;orthogonalLoop=1;jettySize=auto;html=1;exitX=0.9;exitY=0.5;exitDx=0;exitDy=0;exitPerimeter=0;entryX=0;entryY=0.5;entryDx=0;entryDy=0;" edge="1" parent="1" source="aUSmhHUlLb2KoyWTokQt-1" target="aUSmhHUlLb2KoyWTokQt-9">
          <mxGeometry relative="1" as="geometry" />
        </mxCell>
        <mxCell id="aUSmhHUlLb2KoyWTokQt-11" style="edgeStyle=orthogonalEdgeStyle;rounded=0;orthogonalLoop=1;jettySize=auto;html=1;exitX=0.9;exitY=0.5;exitDx=0;exitDy=0;exitPerimeter=0;entryX=0;entryY=0.5;entryDx=0;entryDy=0;" edge="1" parent="1" source="aUSmhHUlLb2KoyWTokQt-1" target="aUSmhHUlLb2KoyWTokQt-5">
          <mxGeometry relative="1" as="geometry" />
        </mxCell>
        <mxCell id="aUSmhHUlLb2KoyWTokQt-12" style="edgeStyle=orthogonalEdgeStyle;rounded=0;orthogonalLoop=1;jettySize=auto;html=1;exitX=0.9;exitY=0.5;exitDx=0;exitDy=0;exitPerimeter=0;entryX=0;entryY=0.5;entryDx=0;entryDy=0;" edge="1" parent="1" source="aUSmhHUlLb2KoyWTokQt-1" target="aUSmhHUlLb2KoyWTokQt-6">
          <mxGeometry relative="1" as="geometry" />
        </mxCell>
        <mxCell id="aUSmhHUlLb2KoyWTokQt-14" style="edgeStyle=orthogonalEdgeStyle;rounded=0;orthogonalLoop=1;jettySize=auto;html=1;exitX=0.9;exitY=0.5;exitDx=0;exitDy=0;exitPerimeter=0;entryX=0;entryY=0.5;entryDx=0;entryDy=0;" edge="1" parent="1" source="aUSmhHUlLb2KoyWTokQt-1" target="aUSmhHUlLb2KoyWTokQt-8">
          <mxGeometry relative="1" as="geometry" />
        </mxCell>
        <mxCell id="aUSmhHUlLb2KoyWTokQt-15" value="Can do" style="edgeLabel;html=1;align=center;verticalAlign=middle;resizable=0;points=[];" vertex="1" connectable="0" parent="aUSmhHUlLb2KoyWTokQt-14">
          <mxGeometry x="-0.8584" y="2" relative="1" as="geometry">
            <mxPoint as="offset" />
          </mxGeometry>
        </mxCell>
        <mxCell id="aUSmhHUlLb2KoyWTokQt-1" value="&lt;div&gt;&lt;br&gt;&lt;/div&gt;&lt;div&gt;User&lt;/div&gt;" style="shape=actor;whiteSpace=wrap;html=1;" vertex="1" parent="1">
          <mxGeometry x="30" y="340" width="40" height="60" as="geometry" />
        </mxCell>
        <mxCell id="aUSmhHUlLb2KoyWTokQt-5" value="Authentification" style="swimlane;" vertex="1" parent="1">
          <mxGeometry x="260" y="30" width="540" height="200" as="geometry" />
        </mxCell>
        <mxCell id="aUSmhHUlLb2KoyWTokQt-18" value="Login/Create Account" style="ellipse;whiteSpace=wrap;html=1;" vertex="1" parent="aUSmhHUlLb2KoyWTokQt-5">
          <mxGeometry x="210" y="50" width="120" height="80" as="geometry" />
        </mxCell>
        <mxCell id="aUSmhHUlLb2KoyWTokQt-16" value="Create Account" style="ellipse;whiteSpace=wrap;html=1;" vertex="1" parent="aUSmhHUlLb2KoyWTokQt-5">
          <mxGeometry x="30" y="50" width="120" height="80" as="geometry" />
        </mxCell>
        <mxCell id="aUSmhHUlLb2KoyWTokQt-19" value="Password Management" style="ellipse;whiteSpace=wrap;html=1;" vertex="1" parent="aUSmhHUlLb2KoyWTokQt-5">
          <mxGeometry x="380" y="50" width="120" height="80" as="geometry" />
        </mxCell>
        <mxCell id="aUSmhHUlLb2KoyWTokQt-6" value="Product Management" style="swimlane;" vertex="1" parent="1">
          <mxGeometry x="260" y="270" width="540" height="200" as="geometry" />
        </mxCell>
        <mxCell id="aUSmhHUlLb2KoyWTokQt-25" value="View all products" style="ellipse;whiteSpace=wrap;html=1;" vertex="1" parent="aUSmhHUlLb2KoyWTokQt-6">
          <mxGeometry x="80" y="70" width="120" height="80" as="geometry" />
        </mxCell>
        <mxCell id="aUSmhHUlLb2KoyWTokQt-26" value="&lt;div&gt;Search products&lt;/div&gt;" style="ellipse;whiteSpace=wrap;html=1;" vertex="1" parent="aUSmhHUlLb2KoyWTokQt-6">
          <mxGeometry x="240" y="80" width="120" height="80" as="geometry" />
        </mxCell>
        <mxCell id="aUSmhHUlLb2KoyWTokQt-8" value="Payment Process" style="swimlane;" vertex="1" parent="1">
          <mxGeometry x="260" y="510" width="540" height="200" as="geometry" />
        </mxCell>
        <mxCell id="aUSmhHUlLb2KoyWTokQt-23" value="Pay cart" style="ellipse;whiteSpace=wrap;html=1;" vertex="1" parent="aUSmhHUlLb2KoyWTokQt-8">
          <mxGeometry x="210" y="60" width="120" height="80" as="geometry" />
        </mxCell>
        <mxCell id="aUSmhHUlLb2KoyWTokQt-9" value="Shoping Cart" style="swimlane;" vertex="1" parent="1">
          <mxGeometry x="260" y="-190" width="540" height="200" as="geometry" />
        </mxCell>
        <mxCell id="aUSmhHUlLb2KoyWTokQt-20" value="&lt;div&gt;Add Product&lt;/div&gt;" style="ellipse;whiteSpace=wrap;html=1;" vertex="1" parent="aUSmhHUlLb2KoyWTokQt-9">
          <mxGeometry x="20" y="50" width="120" height="80" as="geometry" />
        </mxCell>
        <mxCell id="aUSmhHUlLb2KoyWTokQt-21" value="View Cart" style="ellipse;whiteSpace=wrap;html=1;" vertex="1" parent="aUSmhHUlLb2KoyWTokQt-9">
          <mxGeometry x="165" y="50" width="120" height="80" as="geometry" />
        </mxCell>
        <mxCell id="aUSmhHUlLb2KoyWTokQt-22" value="Delete Product" style="ellipse;whiteSpace=wrap;html=1;" vertex="1" parent="aUSmhHUlLb2KoyWTokQt-9">
          <mxGeometry x="320" y="50" width="120" height="80" as="geometry" />
        </mxCell>
      </root>
    </mxGraphModel>
  </diagram>
</mxfile>
